<!--
version: "2.26"
unicode: "f6b3"
-->
<svg
  xmlns="http://www.w3.org/2000/svg"
  width="24"
  height="24"
  viewBox="0 0 24 24"
  fill="currentColor"
>
  <path d="m 8.512 2 c -0.395 0 -0.714 0.32 -0.714 0.714 v 3.643 l -2.276 0.004 c -0.395 0 -0.714 0.32 -0.714 0.714 s 0.32 0.714 0.714 0.714 h 0.5 v 5.127 c 0 0.74 0.391 1.44 1.021 1.825 l 2.814 1.73 v 1.831 c 0 0.788 0.641 1.429 1.429 1.429 v 1.554 c 0 0.395 0.32 0.714 0.714 0.714 s 0.714 -0.32 0.714 -0.714 v -1.554 c 0.788 0 1.429 -0.641 1.429 -1.429 v -1.831 l 2.814 -1.73 c 0.63 -0.387 1.022 -1.086 1.022 -1.826 v -5.127 h 0.5 c 0.395 0 0.714 -0.32 0.714 -0.714 c 0 -0.395 -0.32 -0.714 -0.714 -0.714 l -2.276 -0.004 l -0.001 -3.642 c 0 -0.395 -0.32 -0.714 -0.714 -0.714 c -0.395 0 -0.714 0.32 -0.714 0.714 v 3.643 h -5.548 v -3.643 c 0 -0.395 -0.32 -0.714 -0.714 -0.714 z" />
</svg>
