<!--
category: Design
tags: [advert, advertisement, marketing, commercial]
version: "1.1"
unicode: "ec33"
-->
<svg
  xmlns="http://www.w3.org/2000/svg"
  width="24"
  height="24"
  viewBox="0 0 24 24"
  fill="none"
  stroke="currentColor"
  stroke-width="2"
  stroke-linecap="round"
  stroke-linejoin="round"
>
  <path d="M 9.99,7 H 10" />
  <path d="M 13.99,7 H 14" />
  <path d="M 5.0078125,2 C 5.3316328,2.9920461 6.1253653,3.6291244 7,4 6.7560326,4.7353371 6.0000001,6.0650498 6,7 6,9.0216763 7,10 9,11 8.2638564,10.90638 8.5273756,10.865676 8,10.5 7.034013,10.672392 5.9131663,11.745685 6,13 c 1,9 6,8 8,8 -4.1442993,-2.02204 -3,-6 -3,-5 0,2 0.906382,6 8,6 0,-2.132226 0,-6 -1,-9 -0.333333,-1 -1.991381,-2.173192 -3,-2 2,-1 3,-2.0299145 3,-4 C 18,6.0650498 17.243958,4.7353371 17,4 17.874635,3.6291244 18.668369,2.9920461 18.992188,2 17.935143,1.9837853 16.43533,2.4543547 15,2.5 14.281287,2.312899 13.177044,2.0012571 12,2 10.822957,2.0012571 9.7187128,2.3128923 9,2.5 7.5646734,2.4543548 6.0648598,1.9837318 5.0078125,2 Z" />
</svg>
