<!--
category: Design
tags: [advert, advertisement, marketing, commercial, traffic]
version: "1.1"
unicode: "ec33"
-->
<svg
  xmlns="http://www.w3.org/2000/svg"
  width="24"
  height="24"
  viewBox="0 0 24 24"
  fill="none"
  stroke="currentColor"
  stroke-width="2"
  stroke-linecap="round"
  stroke-linejoin="round"
>
  <path
    d="m 17.000794,12.062565 a 2.0001829,2.0001829 0 0 1 -9.79e-4,-0.06257 v 0 a 2.0001829,2.0001829 0 0 1 2.000183,-2.0001828 2.0001829,2.0001829 0 0 1 2.000183,2.0001828 2.0001829,2.0001829 0 0 1 -2.000183,2.000183 2.0001829,2.0001829 0 0 1 -0.06257,-9.79e-4"
  />
  <path
    d="m 6.9992543,11.939119 a 2.0001829,2.0001829 0 0 1 9.267e-4,0.06088 2.0001829,2.0001829 0 0 1 -2.0001829,2.000183 2.0001829,2.0001829 0 0 1 -2.0001829,-2.000183 v 0 a 2.0001829,2.0001829 0 0 1 2.0001829,-2.0001828 2.0001829,2.0001829 0 0 1 0.060879,9.268e-4"
  />
  <path
    d="M 14.000185,6.0000024 A 3.9998174,3.9998174 0 0 1 18.000002,2.000185 3.9998174,3.9998174 0 0 1 21.999819,6.0000024 3.9998174,3.9998174 0 0 1 18.000002,9.9998198 3.9998174,3.9998174 0 0 1 14.000185,6.0000024 Z"
  />
  <path
    d="M 2.000185,18 A 3.9998174,3.9998174 0 0 1 6.0000024,14.000183 3.9998174,3.9998174 0 0 1 9.9998198,18 3.9998174,3.9998174 0 0 1 6.0000024,21.999817 3.9998174,3.9998174 0 0 1 2.000185,18 Z"
  />
  <path
    style="fill:currentColor;fill-opacity:1;stroke-width:0;stroke-dasharray:none"
    d="M 4.5,0 C 2.0266759,7.850659e-5 6.1448994e-5,2.0266816 0,4.5 A 0.99996498,0.99996498 0 0 0 0,4.50195 C 0.00243967,5.6240999 0.42534485,6.7059833 1.1835938,7.5332 V 7.50195 a 0.99996498,0.99996498 0 0 0 0.027344,0.064453 l 3.484375,3.484375 A 1,1 0 0 1 5,11 1,1 0 0 1 6,12 1,1 0 0 1 5.9492188,12.304688 L 16.396484,22.751953 a 0.99996498,0.99996498 0 0 0 0.04102,0.01758 h -0.01953 C 17.249958,23.556357 18.350972,23.996616 19.496094,24 A 0.99996498,0.99996498 0 0 0 19.5,24 c 2.473324,-7.9e-5 4.499938,-2.026682 4.5,-4.5 -1.37e-4,-1.26814 -0.53589,-2.477693 -1.474609,-3.330078 l -0.0039,-0.0039 -3.216796,-3.216797 A 1,1 0 0 1 19,13 1,1 0 0 1 18,12 1,1 0 0 1 18.050781,11.695312 L 7.8339844,1.4785156 C 6.9814025,0.53724611 5.7699953,1.462012e-4 4.5,0 Z m 0,2 c 0.7064379,8.13e-5 1.3792682,0.2986858 1.8535156,0.8222656 a 0.99996498,0.99996498 0 0 0 0.033203,0.035156 L 21.128906,17.601562 a 0.99996498,0.99996498 0 0 0 0.04883,0.04492 0.99996498,0.99996498 0 0 0 0,0.002 C 21.700459,18.122573 21.999924,18.794191 22,19.5 c -3.5e-5,1.39196 -1.106336,2.498912 -2.498047,2.5 -0.63606,-0.0024 -1.246818,-0.246517 -1.708984,-0.683594 a 0.99996498,0.99996498 0 0 0 -0.0039,0 L 2.6601562,6.1875 2.65625,6.1816406 C 2.2346583,5.7217023 2.0013565,5.1219665 2,4.4980469 2.0010783,3.1063556 3.1080195,2.0000442 4.5,2 Z"
  />
</svg>
